<svg width="40" height="40" viewBox="0 0 40 40" fill="none" xmlns="http://www.w3.org/2000/svg">
  <defs>
    <linearGradient id="shieldGradient" x1="20" y1="0" x2="20" y2="40" gradientUnits="userSpaceOnUse">
      <stop offset="0%" stop-color="#3B82F6" />
      <stop offset="100%" stop-color="#2563EB" />
    </linearGradient>
    <filter id="glow" x="-20%" y="-20%" width="140%" height="140%">
      <feGaussianBlur stdDeviation="1.5" result="coloredBlur"/>
      <feMerge>
        <feMergeNode in="coloredBlur"/>
        <feMergeNode in="SourceGraphic"/>
      </feMerge>
    </filter>
  </defs>

  <path
    d="M20 4L34 10V20C34 29 28 36 20 39C12 36 6 29 6 20V10L20 4Z"
    fill="url(#shieldGradient)"
    stroke="#1D4ED8"
    stroke-width="1"
  />

  <path
    d="M20 5L32 10.5V20C32 27.5 27 33.5 20 36C13 33.5 8 27.5 8 20V10.5L20 5Z"
    fill="white"
    fill-opacity="0.1"
  />

  <path
    d="M11 21H14L17 13L23 29L26 21H29"
    stroke="white"
    stroke-width="2.5"
    stroke-linecap="round"
    stroke-linejoin="round"
    filter="url(#glow)"
  />
  
  <circle cx="28" cy="12" r="2.5" fill="#60A5FA" stroke="white" stroke-width="1" />
</svg>